<svg xmlns="http://www.w3.org/2000/svg" width="87" height="87" viewBox="0 0 87 87"><title>Oval</title><path d="M0 43.5C0 19.476 19.476 0 43.5 0S87 19.476 87 43.5 67.524 87 43.5 87 0 67.524 0 43.5z" fill="#426980"/><path d="M21 41.47l8.56-12.7.98-1.77.68 1.93 11.06 26.2 19.76-15.95 5.03 3.22v2.22l-4.91-3.11-20.64 16.65-11.37-26.89-7.58 11.25z" fill="#84dbff"/><path d="M29.42 49.15L43.83 27l13.42 30.05 9.59-1.9v1.91l-10.7 2.12-12.62-28.25-12.7 19.55-8.72 6.36-1.1-1.52z" fill="#ff7058"/><path d="M20 66.45h46.46v-2.52H22.52V20H20z" fill="#fff"/><path d="M66 61v9.27l6.27-4.64zM17 21.27h9.29L21.65 15z" fill="#fff"/></svg>