<svg xmlns="http://www.w3.org/2000/svg" width="87" height="87" viewBox="0 0 87 87"><title>Oval</title><path d="M0 43.5C0 19.476 19.476 0 43.5 0S87 19.476 87 43.5 67.524 87 43.5 87 0 67.524 0 43.5z" fill="#426980"/><path d="M38 71V61h21v10z" fill="#c8d2d6"/><path d="M51.82 70.67H38V61h8.14c3.14 0 5.68 2.59 5.68 5.78z" fill="#e7eced"/><path d="M44 66a2 2 0 1 1 4 0 2 2 0 0 1-4 0z" fill="#7383bf"/><path d="M44.98 29.89a3.07 3.07 0 0 0 1.81-2.81c0-1.7-1.36-3.08-3.02-3.08-1.24 0-2.3.76-2.77 1.84z" fill="#fbce9d"/><path d="M48.98 33.89a3.07 3.07 0 0 0 1.81-2.81c0-1.7-1.36-3.08-3.02-3.08-1.24 0-2.3.76-2.77 1.84zm5 4a3.07 3.07 0 0 0 1.81-2.81c0-1.7-1.36-3.08-3.02-3.08-1.24 0-2.3.76-2.77 1.84zm4 5a3.07 3.07 0 0 0 1.81-2.81c0-1.7-1.36-3.08-3.02-3.08-1.24 0-2.3.76-2.77 1.84zm-17.32 6.27h-8.64c-1.66 0-3.02-1.39-3.02-3.08 0-1.7 1.36-3.08 3.02-3.08h8.64c1.66 0 3.02 1.38 3.02 3.08 0 1.69-1.36 3.08-3.02 3.08z" fill="#fbce9d"/><path d="M57.91 48l-9.6 9.78c-.77.79-2.03.79-2.8 0l-8.36-8.52h-5.69c-.5.25-1.87-.65-1.34-.19l9.34 9.47c.06.07.13.11.2.17v2.86h17.27v-3.96a6.628 6.628 0 0 0 2.59-5.27c0-1.66-.61-3.18-1.61-4.34z" fill="#f7b563"/><path d="M38.44 23L25 36.68l6.56 6.68c.1-.02.21-.04.32-.04h8.64c1.66 0 3.02 1.39 3.02 3.08 0 1.69-1.36 3.08-3.02 3.08h-2.95l5.49 5.58 13.43-13.67z" fill="#424a60"/><path d="M37.93 22.54l-1.91-1.95c-.78-.79-2.03-.79-2.81 0L22.58 31.42c-.77.78-.77 2.06 0 2.85l1.92 1.95zm21.38 21.39L56.43 41 43 54.68l2.87 2.92c.78.79 2.03.79 2.8 0l10.64-10.82c.77-.79.77-2.07 0-2.85z" fill="#e7eced"/><path d="M50 50c0-1.105.672-2 1.5-2s1.5.895 1.5 2-.672 2-1.5 2-1.5-.895-1.5-2z" fill="#fff"/><path d="M29.86 29.52c-.22 0-.44-.09-.61-.26a.9.9 0 0 1 0-1.24l1.73-1.76a.84.84 0 0 1 1.22 0c.34.34.34.9 0 1.24l-1.73 1.76c-.16.17-.39.26-.61.26z" fill="#424a60"/></svg>