<svg xmlns="http://www.w3.org/2000/svg" width="19" height="19" viewBox="0 0 19 19"><title>Shape</title><path d="M0 9.5C0 14.74 4.26 19 9.5 19S19 14.74 19 9.5 14.74 0 9.5 0 0 4.26 0 9.5zm1.25 0c0-4.55 3.7-8.25 8.25-8.25s8.25 3.7 8.25 8.25-3.7 8.25-8.25 8.25-8.25-3.7-8.25-8.25z" fill="#184560"/><path d="M12.94 6.18l-4.9 4.9L6.06 9.1a.628.628 0 0 0-.88 0c-.24.24-.24.64 0 .88L7.6 12.4c.12.12.28.19.44.19.16 0 .32-.07.44-.19h.01l5.33-5.34a.61.61 0 0 0 0-.88.628.628 0 0 0-.88 0z" fill="#184560"/></svg>