<svg xmlns="http://www.w3.org/2000/svg" width="40" height="40" viewBox="0 0 40 40"><title>Shape</title><path d="M19.98 39.96C8.96 39.96 0 31 0 19.98S8.96 0 19.98 0c3.73 0 7.37 1.04 10.53 3 .55.34.72 1.06.38 1.61-.35.56-1.07.73-1.62.38-2.78-1.73-6-2.64-9.29-2.64-9.72 0-17.63 7.91-17.63 17.63 0 9.72 7.91 17.63 17.63 17.63 9.72 0 17.63-7.91 17.63-17.63 0-1.95-.32-3.87-.94-5.7-.21-.62.12-1.28.73-1.49.62-.21 1.28.11 1.49.73.71 2.07 1.07 4.25 1.07 6.46C39.96 31 31 39.96 19.98 39.96z" fill="#184560"/><path d="M19.58 26.63c-.3 0-.59-.11-.81-.32l-9.4-8.83c-.47-.45-.5-1.19-.05-1.66.44-.47 1.19-.5 1.66-.05l8.5 7.98L34.92 5.42a1.175 1.175 0 0 1 1.8 1.51L20.48 26.21c-.21.25-.51.4-.83.42h-.07z" fill="#184560"/></svg>