<svg xmlns="http://www.w3.org/2000/svg" width="87" height="87" viewBox="0 0 87 87"><title>Oval</title><defs><radialGradient id="a" gradientUnits="userSpaceOnUse" cx="331.5" cy="2514.5" r="87"><stop stop-color="#2e657c" offset="0"/><stop stop-color="#426980" offset="1"/></radialGradient></defs><path d="M288 2514.5c0-24.024 19.476-43.5 43.5-43.5s43.5 19.476 43.5 43.5-19.476 43.5-43.5 43.5-43.5-19.476-43.5-43.5z" fill="url(#a)" transform="translate(-288 -2471)"/><path d="M25 41.5c0-4.142 3.134-7.5 7-7.5s7 3.358 7 7.5c0 4.142-3.134 7.5-7 7.5s-7-3.358-7-7.5z" fill="#b36435"/><path d="M32.48 34c-.16 0-.32.01-.48.02 3.75.26 6.71 3.4 6.71 7.26 0 3.85-2.96 7-6.71 7.25.16.01.32.02.48.02 3.97 0 7.19-3.25 7.19-7.27S36.45 34 32.48 34z" fill="#a65d31"/><path d="M32.23 47.61c-3.43 0-6.23-2.83-6.23-6.3 0-3.48 2.8-6.31 6.23-6.31 3.44 0 6.23 2.83 6.23 6.31 0 3.47-2.79 6.3-6.23 6.3z" fill="#e78244"/><path d="M47 41.5c0-4.142 3.134-7.5 7-7.5s7 3.358 7 7.5c0 4.142-3.134 7.5-7 7.5s-7-3.358-7-7.5z" fill="#b36435"/><path d="M54.48 34c-.16 0-.32.01-.48.02 3.75.26 6.71 3.4 6.71 7.26 0 3.85-2.96 7-6.71 7.25.16.01.32.02.48.02 3.97 0 7.19-3.25 7.19-7.27S58.45 34 54.48 34z" fill="#a65d31"/><path d="M54.23 47.61c3.44 0 6.23-2.83 6.23-6.3 0-3.48-2.79-6.31-6.23-6.31C50.8 35 48 37.83 48 41.31c0 3.47 2.8 6.3 6.23 6.3z" fill="#e78244"/><path d="M38 40.5a5.5 5.5 0 1 1 11 0 5.5 5.5 0 0 1-11 0z" fill="#1a1a1a"/><path d="M43.31 44.73c-2.37 0-4.31-1.96-4.31-4.36 0-2.41 1.94-4.37 4.31-4.37 2.38 0 4.32 1.96 4.32 4.37 0 2.4-1.94 4.36-4.32 4.36z" fill="#242424"/><path d="M43.23 38c-1.44 0-3.83 1.94-6.23 0v11.64c.96 0 2.88-4.36 6.23-4.36 3.36 0 5.28 4.36 6.23 4.36V38c-2.39 1.94-4.79 0-6.23 0z" fill="#e78244"/><path d="M37 38v11.64c.63 0 1.69-1.89 3.29-3.19.04-.38.07-.77.07-1.17 0-2.53-.87-4.84-2.32-6.67A4.2 4.2 0 0 1 37 38z" fill="#d97a40"/><path d="M42 40.5a1.5 1.5 0 1 1 3 0 1.5 1.5 0 0 1-3 0z" fill="#1a1a1a"/><path d="M19 45.5C19 39.701 23.701 35 29.5 35S40 39.701 40 45.5 35.299 56 29.5 56 19 51.299 19 45.5z" fill="#b36435"/><path d="M29.24 35c-.08 0-.16 0-.24.01 5.71.13 10.31 4.85 10.31 10.66 0 5.82-4.6 10.54-10.31 10.67.08 0 .16.01.24.01 5.82 0 10.55-4.78 10.55-10.68 0-5.89-4.73-10.67-10.55-10.67z" fill="#a65d31"/><path d="M29.59 55.41c-5.29 0-9.59-4.36-9.59-9.71 0-5.35 4.3-9.7 9.59-9.7 5.28 0 9.59 4.35 9.59 9.7s-4.31 9.71-9.59 9.71z" fill="#b36435"/><path d="M29.11 54.44c-5.02 0-9.11-4.14-9.11-9.22 0-5.09 4.09-9.22 9.11-9.22s9.11 4.13 9.11 9.22c0 5.08-4.09 9.22-9.11 9.22z" fill="#96e6d9"/><path d="M33.97 44.85l3.78-.61c-.58-3.72-3.48-6.65-7.14-7.24L30 40.83c2.04.33 3.65 1.96 3.97 4.02zm-8.75-1.32L21.7 42c-1.47 3.45-.58 7.5 2.21 9.99l2.53-2.91a4.9 4.9 0 0 1-1.22-5.55z" fill="#fff"/><path d="M28 39.5a1.5 1.5 0 1 1 3 0 1.5 1.5 0 0 1-3 0zM24 46a1 1 0 1 1 2 0 1 1 0 0 1-2 0zm2 4a3 3 0 1 1 6 0 3 3 0 0 1-6 0z" fill="#91d2f2"/><path d="M47 45.5C47 39.701 51.701 35 57.5 35S68 39.701 68 45.5 63.299 56 57.5 56 47 51.299 47 45.5z" fill="#b36435"/><path d="M57.48 35c-.16 0-.32 0-.48.01 5.6.26 10.07 4.93 10.07 10.66 0 5.74-4.47 10.41-10.07 10.66.16.01.32.02.48.02 5.82 0 10.55-4.78 10.55-10.68C68.03 39.78 63.3 35 57.48 35z" fill="#a65d31"/><path d="M57.59 55.41c-5.29 0-9.59-4.36-9.59-9.71 0-5.35 4.3-9.7 9.59-9.7 5.28 0 9.59 4.35 9.59 9.7s-4.31 9.71-9.59 9.71z" fill="#b36435"/><path d="M57.11 54.44c-5.02 0-9.11-4.14-9.11-9.22 0-5.09 4.09-9.22 9.11-9.22s9.11 4.13 9.11 9.22c0 5.08-4.09 9.22-9.11 9.22z" fill="#96e6d9"/><path d="M61.97 44.85l3.78-.61c-.58-3.72-3.48-6.65-7.14-7.24L58 40.83c2.04.33 3.65 1.96 3.97 4.02zm-8.75-1.32L49.7 42c-1.47 3.45-.58 7.5 2.21 9.99l2.53-2.91a4.9 4.9 0 0 1-1.22-5.55z" fill="#fff"/><path d="M56 39.5a1.5 1.5 0 1 1 3 0 1.5 1.5 0 0 1-3 0zM52 46a1 1 0 1 1 2 0 1 1 0 0 1-2 0zm2 4a3 3 0 1 1 6 0 3 3 0 0 1-6 0z" fill="#91d2f2"/></svg>