<svg xmlns="http://www.w3.org/2000/svg" width="87" height="87" viewBox="0 0 87 87"><title>Oval</title><path d="M0 43.5C0 19.476 19.476 0 43.5 0S87 19.476 87 43.5 67.524 87 43.5 87 0 67.524 0 43.5z" fill="#426980"/><path d="M35 58h13.83v6.36H35z" fill="#ccd0d2"/><path d="M33.61 65h17.05c.88 0 1.61.71 1.61 1.58 0 .86-.73 1.57-1.61 1.57H33.61c-.88 0-1.61-.71-1.61-1.57 0-.87.73-1.58 1.61-1.58z" fill="#e4e7e7"/><path d="M18.44 21h47.1c1.35 0 2.44 1.07 2.44 2.39v32.09c0 1.32-51.98 1.32-51.98 0V23.39c0-1.32 1.09-2.39 2.44-2.39z" fill="#36434f"/><path d="M18 23h47.09v27H18z" fill="#465765"/><path d="M35.83 31h11.39c.46 0 .83.36.83.81v11.9c0 .46-.37.82-.83.82H35.83c-.47 0-.83-.36-.83-.82V31.76c0-.4.36-.76.83-.76z" fill="#e4e7e7"/><path d="M39 40h6.5v1.58H39z" fill="#fff"/><path d="M42.44 33c1.35 0 2.45 1.07 2.45 2.39s-1.1 2.39-2.45 2.39S40 36.71 40 35.39 41.09 33 42.44 33z" fill="#c2c5c5"/><path d="M35 58h13.83v2.39H35z" fill="#b7bbbd"/><path d="M16 56.15c0 1.33 1.09 2.39 2.44 2.39h47.1c1.35 0 2.44-1.06 2.44-2.39V53H16z" fill="#e4e7e7"/></svg>