<svg xmlns="http://www.w3.org/2000/svg" width="48" height="48" viewBox="0 0 48 48"><title>Oval</title><path d="M0 24C0 10.745 10.745 0 24 0s24 10.745 24 24-10.745 24-24 24S0 37.255 0 24z" fill="#426980"/><path d="M21.42 12h16.16c1.82 0 3.18 1.54 3.18 3.36v8.84c0 1.82-1.36 3.52-3.18 3.52H34.8v4.55c0 .6-.23.81-.59.32l-3.72-4.87h-9.07c-1.82 0-3.42-1.7-3.42-3.52v-8.84c0-1.82 1.6-3.36 3.42-3.36z" fill="#e0e0e0"/><path d="M27.49 17H11.32C9.51 17 8 18.51 8 20.33v8.84c0 1.82 1.51 3.37 3.32 3.37h2.64v4.7c0 .6.3.73.67.25l3.78-4.95h9.08c1.81 0 3.27-1.55 3.27-3.37v-8.84c0-1.82-1.46-3.33-3.27-3.33z" fill="#e27c3e"/><path d="M13.4 20.8h12.89c.27 0 .27-.8 0-.8H13.4c-.53 0-.53.8 0 .8zM26.29 24H13.4c-.53 0-.53.89 0 .89h12.89c.27 0 .27-.89 0-.89zm0 4H13.4c-.53 0-.53.89 0 .89h12.89c.27 0 .27-.89 0-.89z" fill="#fff"/></svg>