<svg xmlns="http://www.w3.org/2000/svg" width="37" height="40" viewBox="0 0 37 40"><title>Shape</title><path d="M12.05 14.13a.667.667 0 0 0-.86.06c-.23.24-.25.6-.06.87l6.18 8.63c.41.56 1.04.91 1.72.97.07 0 .13.01.19.01.62 0 1.22-.25 1.66-.7.49-.49.74-1.17.68-1.87-.05-.69-.4-1.32-.96-1.73zm7.09 9.2c-.31-.02-.58-.18-.76-.43l-3.77-5.26 5.21 3.81c.25.18.4.45.43.76.02.3-.09.6-.3.82-.22.21-.51.32-.81.3z" fill="#184560"/><path d="M35.45 17.34v-.01c-.41-1.52-1-2.95-1.77-4.29 0-.01 0-.03-.01-.04l-.03-.03a18.18 18.18 0 0 0-2.36-3.21l1.42-1.43.94.94 2.8-2.83-2.8-2.82-2.81 2.82.94.95-1.42 1.43c-.97-.91-2.03-1.71-3.18-2.38l-.03-.03c-.01-.01-.03-.01-.04-.01-1.32-.77-2.75-1.38-4.25-1.78-.01 0-.01-.01-.01-.01h-.01c-.85-.23-1.73-.4-2.63-.5v-.78h.99c.91 0 1.66-.74 1.66-1.66C22.85.75 22.1 0 21.19 0h-5.94c-.91 0-1.65.75-1.65 1.67 0 .92.74 1.66 1.65 1.66h.99v.78c-.9.1-1.78.27-2.63.5h-.01v.01c-1.51.41-2.93 1.01-4.26 1.78-.01 0-.03 0-.04.01l-.03.03c-1.15.68-2.21 1.47-3.18 2.38L4.67 7.39l.94-.95L2.8 3.62 0 6.44l2.8 2.83.94-.94 1.42 1.43c-.9.98-1.69 2.05-2.36 3.21l-.03.03c-.01.01-.01.03-.01.04C2 14.38 1.4 15.81.99 17.33v.02C.59 18.83.38 20.39.38 22c0 1.61.21 3.17.61 4.65v.02c.41 1.52 1.01 2.95 1.77 4.29 0 .01 0 .03.01.04.01.02.03.03.04.05.77 1.33 1.7 2.55 2.77 3.64.01.01.01.03.03.04.01.01.02.01.04.02 1.08 1.09 2.29 2.03 3.62 2.81l.03.03c.02.01.04.02.06.02 1.32.77 2.74 1.37 4.24 1.77v.01h.01c1.47.4 3.02.61 4.61.61 1.59 0 3.14-.21 4.61-.61h.01v-.01c1.5-.4 2.92-1 4.24-1.77.02 0 .04-.01.06-.02l.03-.03a17.99 17.99 0 0 0 3.63-2.81c.01-.01.02-.01.03-.02.02-.01.02-.03.03-.04 1.07-1.09 2-2.31 2.77-3.64.01-.02.03-.03.04-.05.01-.01.01-.03.01-.04.77-1.34 1.36-2.77 1.77-4.29v-.02c.4-1.48.61-3.04.61-4.65 0-1.61-.21-3.17-.61-4.65zm-.88-10.9l-.93.95-.94-.95.94-.94zM2.8 5.5l.94.94-.94.95-.93-.95zm31.19 21.45c-.3.98-.69 1.91-1.15 2.8l-1.13-.66a.648.648 0 0 0-.9.24c-.18.32-.08.73.24.91l1.13.66c-.54.85-1.15 1.66-1.83 2.4l-.92-.93a.652.652 0 0 0-.93 0c-.26.26-.26.68 0 .94l.92.93c-.74.68-1.53 1.3-2.38 1.84l-.65-1.13a.66.66 0 1 0-1.14.66l.65 1.14c-.88.47-1.81.86-2.77 1.16l-.34-1.27a.648.648 0 0 0-.81-.47c-.35.09-.56.46-.46.81l.33 1.28c-.96.21-1.95.35-2.97.39v-1.32c0-.37-.29-.66-.66-.66a.66.66 0 0 0-.66.66v1.32a16.99 16.99 0 0 1-2.97-.39l.34-1.28a.668.668 0 0 0-.47-.81c-.35-.1-.72.11-.81.47l-.34 1.27c-.96-.3-1.89-.69-2.77-1.16l.65-1.14a.66.66 0 1 0-1.14-.66l-.65 1.13c-.85-.54-1.64-1.16-2.38-1.84l.92-.93c.26-.26.26-.68 0-.94a.652.652 0 0 0-.93 0l-.92.93c-.68-.74-1.29-1.55-1.82-2.4l1.12-.66c.32-.18.43-.59.24-.91a.648.648 0 0 0-.9-.24l-1.13.66c-.46-.89-.85-1.82-1.15-2.8l1.26-.34a.66.66 0 0 0 .47-.81.666.666 0 0 0-.81-.48l-1.26.35c-.22-.98-.35-1.98-.39-3h1.3c.37 0 .66-.3.66-.67 0-.37-.29-.67-.66-.67h-1.3c.04-1.02.17-2.02.39-3l1.26.35a.67.67 0 0 0 .81-.48c.1-.35-.11-.72-.47-.81l-1.26-.34c.3-.98.69-1.91 1.15-2.8l1.13.66a.656.656 0 0 0 .9-.24c.18-.32.08-.73-.24-.91l-1.13-.66c.54-.85 1.15-1.66 1.83-2.4l.92.93c.13.13.3.19.46.19.17 0 .34-.06.47-.19.26-.26.26-.68 0-.94l-.92-.93c.74-.68 1.53-1.3 2.38-1.84l.65 1.14a.655.655 0 0 0 .9.24c.32-.18.43-.59.24-.91l-.65-1.14c.88-.47 1.81-.86 2.77-1.16l.34 1.27c.08.3.34.5.64.5.05 0 .11-.01.17-.03.35-.09.56-.46.46-.81l-.33-1.28c.77-.17 1.57-.29 2.38-.35.2-.02.39-.03.56-.04h.03v1.32c0 .37.3.66.66.66.37 0 .66-.29.66-.66V5.35h.03c.18.01.36.02.57.04.81.06 1.6.18 2.37.35l-.33 1.28c-.1.35.11.72.46.81.06.02.12.03.18.03.29 0 .55-.2.63-.5l.34-1.27c.96.3 1.89.69 2.77 1.16l-.65 1.14c-.19.32-.08.73.24.91a.656.656 0 0 0 .9-.24l.65-1.14c.85.54 1.64 1.16 2.38 1.84l-.92.93c-.26.26-.26.68 0 .94.13.13.3.19.47.19.17 0 .33-.06.46-.19l.92-.93c.68.74 1.29 1.55 1.83 2.4l-1.13.66a.666.666 0 0 0 .33 1.24c.11 0 .23-.03.33-.09l1.13-.66c.46.89.85 1.82 1.15 2.8l-1.26.34a.668.668 0 0 0 .17 1.31c.06 0 .11-.01.17-.02l1.26-.35c.22.98.35 1.98.39 3h-1.3c-.37 0-.66.3-.66.67 0 .37.29.67.66.67h1.3c-.04 1.02-.17 2.02-.39 3l-1.26-.34c-.35-.1-.71.11-.81.47-.09.35.12.72.47.81zM17.56 2h-2.31a.335.335 0 0 1 0-.67h5.94c.19 0 .33.15.33.34 0 .18-.14.33-.33.33h-2.31v2.01C18.65 4 18.43 4 18.22 4c-.21 0-.43 0-.66.01z" fill="#184560"/></svg>