<svg xmlns="http://www.w3.org/2000/svg" width="40" height="40" viewBox="0 0 40 40"><title>Shape</title><path d="M20 0C8.97 0 0 8.97 0 20c0 5.82 2.5 11.07 6.49 14.73l-.02.02.65.55c.04.03.09.06.13.1.35.28.7.55 1.07.82.11.08.23.17.35.25.39.27.79.52 1.2.76.09.05.18.1.26.16.45.25.91.49 1.37.71.04.01.07.03.11.04 1.51.71 3.14 1.23 4.83 1.54.05 0 .09.01.14.02.52.09 1.05.16 1.59.21.07.01.13.01.2.02.54.04 1.08.07 1.63.07.54 0 1.08-.03 1.62-.07.06-.01.13-.01.2-.02.53-.05 1.06-.12 1.58-.21.05 0 .09-.01.14-.02 1.67-.3 3.27-.81 4.77-1.49.05-.03.11-.05.16-.08.45-.21.89-.44 1.32-.68.11-.06.21-.12.32-.18.39-.24.78-.48 1.15-.73.13-.09.27-.19.4-.29.32-.23.63-.46.94-.71.06-.06.14-.1.2-.16l.67-.55-.02-.02C37.47 31.13 40 25.85 40 20 40 8.97 31.03 0 20 0zm0 1.45c10.23 0 18.55 8.32 18.55 18.55 0 5.51-2.42 10.46-6.25 13.86a6.21 6.21 0 0 0-.65-.39l-6.16-3.08c-.55-.27-.89-.83-.89-1.44v-2.16c.14-.17.29-.37.44-.59.8-1.13 1.44-2.38 1.91-3.73a2.62 2.62 0 0 0 1.51-2.39V17.5c0-.63-.23-1.24-.64-1.72v-3.39c.04-.38.17-2.51-1.37-4.27-1.34-1.53-3.51-2.3-6.45-2.3-2.94 0-5.11.77-6.45 2.3-1.54 1.76-1.41 3.89-1.37 4.27v3.39c-.41.48-.64 1.09-.64 1.72v2.58c0 .8.36 1.55.97 2.05.59 2.31 1.8 4.06 2.25 4.65v2.11c0 .59-.32 1.13-.84 1.42l-5.75 3.14c-.19.1-.37.21-.55.34-3.78-3.4-6.17-8.32-6.17-13.79C1.45 9.77 9.77 1.45 20 1.45zm10.1 34.09c-.12.08-.24.16-.36.23-.34.22-.69.42-1.05.61l-.24.12c-.82.42-1.66.78-2.53 1.07-.03.01-.06.02-.1.03-.45.15-.91.29-1.38.4v.01c-.48.11-.95.21-1.43.29h-.04c-.45.08-.91.13-1.37.17-.08.01-.16.01-.24.02-.45.03-.9.06-1.36.06-.46 0-.92-.03-1.38-.06-.08-.01-.16-.01-.24-.02-.46-.04-.92-.09-1.37-.17-.02 0-.04-.01-.06-.01-.96-.16-1.91-.4-2.83-.71l-.09-.03c-.45-.15-.91-.32-1.35-.51 0-.01-.01-.01-.01-.01-.42-.18-.83-.38-1.24-.59-.05-.03-.11-.06-.16-.08-.37-.2-.73-.42-1.09-.64-.11-.07-.21-.14-.32-.2-.33-.22-.65-.44-.97-.68-.03-.03-.07-.05-.1-.08.02-.01.05-.02.07-.04l5.75-3.13c.99-.54 1.61-1.58 1.61-2.7l-.01-2.62-.16-.21c-.02-.01-1.59-1.93-2.19-4.52l-.06-.29-.25-.16c-.35-.22-.56-.6-.56-1.01V17.5c0-.33.14-.65.41-.89l.24-.21v-4.05l-.01-.1c0-.02-.22-1.77 1.02-3.17C15.7 7.88 17.5 7.27 20 7.27c2.49 0 4.29.61 5.34 1.8 1.23 1.39 1.03 3.17 1.03 3.18l-.01 4.15.24.22c.26.23.41.55.41.88v2.58c0 .52-.35.99-.86 1.15l-.36.11-.12.36c-.43 1.33-1.04 2.56-1.81 3.66-.19.27-.38.51-.54.69l-.18.21v2.69c0 1.17.65 2.22 1.7 2.75L31 34.77l.12.06-.24.18c-.26.18-.51.36-.78.53z" fill="#184560"/></svg>