<svg xmlns="http://www.w3.org/2000/svg" width="87" height="87" viewBox="0 0 87 87"><title>Oval</title><path d="M0 43.5C0 19.476 19.476 0 43.5 0S87 19.476 87 43.5 67.524 87 43.5 87 0 67.524 0 43.5z" fill="#426980"/><path d="M33.34 21c-.74 0-1.34.6-1.34 1.34v18.67c0 .74.6 1.34 1.34 1.34h10.77V21z" fill="#ffcf6d"/><path d="M54.68 21H44v21.35h10.68c.74 0 1.34-.6 1.34-1.34V22.34c0-.74-.6-1.34-1.34-1.34zm-7.34 45.35h21.45c.74 0 1.34-.6 1.34-1.34V46.34c0-.74-.6-1.34-1.34-1.34H47.34c-.74 0-1.34.6-1.34 1.34v18.67c0 .74.6 1.34 1.34 1.34z" fill="#f9b65f"/><path d="M20.34 66.35h21.45c.74 0 1.34-.6 1.34-1.34V46.34c0-.74-.6-1.34-1.34-1.34H20.34c-.74 0-1.34.6-1.34 1.34v18.67c0 .74.6 1.34 1.34 1.34z" fill="#ffcf6d"/><path d="M60.53 51.05v9.13h3.05v-9.13h1.52L62.05 48 59 51.05zm-9 0v9.13h3.05v-9.13h1.52L53.05 48 50 51.05zM49 64v-2h16v2z" fill="#b54552"/><path d="M33.53 51.05v9.13h3.05v-9.13h1.52L35.05 48 32 51.05z" fill="#c64b55"/><path d="M24.53 51.05v9.13h3.05v-9.13h1.52L26.05 48 23 51.05zM23 64v-2h16v2z" fill="#d95459"/><path d="M47.63 38.81h-2.16v-5.55a4.036 4.036 0 0 0 3.61-4.02c0-1.15-.47-3.36-1.24-5.24h-1.21l-1.84 1.84h1.55c.17 0 .33.11.39.27.07.16.03.35-.09.47l-2.59 2.59c-.08.09-.19.13-.3.13-.11 0-.22-.04-.31-.13a.429.429 0 0 1 0-.61l1.85-1.85h-1.54c-.18 0-.34-.11-.4-.27a.43.43 0 0 1 .09-.47L45.41 24h-3.17c-.76 1.88-1.24 4.09-1.24 5.24 0 2.09 1.58 3.81 3.61 4.02v5.54h-2.16c-.24 0-.43.2-.43.44s.19.43.43.43h5.18c.24 0 .43-.19.43-.43s-.19-.43-.43-.43z" fill="#c64b55"/><path d="M44.43 24H44v.43zM44 26v.35l.35-.35zm.43-.57V25l-.43.43z" fill="#c64b55"/><path d="M44.05 29.17c-.08.09-.19.13-.3.13-.11 0-.22-.04-.31-.13a.429.429 0 0 1 0-.61l1.64-1.64v-.21h-1.33c-.18 0-.34-.11-.4-.27a.43.43 0 0 1 .09-.47l1.64-1.64V24h-2.84c-.76 1.88-1.24 4.09-1.24 5.24 0 2.09 1.58 3.81 3.61 4.02v5.54h-2.16c-.24 0-.43.2-.43.44s.19.43.43.43h2.63V28.14z" fill="#c64b55"/><path d="M46.55 38.8h-2.16v-5.54A4.036 4.036 0 0 0 48 29.24c0-1.15-.48-3.36-1.24-5.24h-1.21L44 25.55v.29h1.25a.436.436 0 0 1 .31.74L44 28.14v11.53h2.55c.23 0 .43-.19.43-.43s-.2-.44-.43-.44z" fill="#b54552"/></svg>