<svg xmlns="http://www.w3.org/2000/svg" width="48" height="48" viewBox="0 0 48 48"><title>Oval</title><path d="M0 24C0 10.745 10.745 0 24 0s24 10.745 24 24-10.745 24-24 24S0 37.255 0 24z" fill="#426980"/><path d="M35.68 40.59H11.45c-.25 0-.45-.2-.45-.44V9.45c0-.25.2-.45.45-.45h24.24c.25 0 .45.2.45.45v30.7c-.01.24-.21.44-.46.44z" fill="#324a5e"/><path d="M14 11v24.98h16.66v-3.52h3.52V11z" fill="#fff"/><path d="M31 35.52L34.52 32H31z" fill="#e6e9ee"/><path d="M26.45 7.67v-.69c0-1.1-.89-1.98-1.98-1.98-1.09 0-1.98.88-1.98 1.98v.69H19v4.05h10.95V7.67z" fill="#ff7058"/><path d="M23 7a1 1 0 1 1 2 0 1 1 0 0 1-2 0z" fill="#ffd05b"/><path d="M17 18v-1h2v1z" fill="#84dbff"/><path d="M20 18v-1h11v1z" fill="#e6e9ee"/><path d="M17 21v-1h2v1z" fill="#84dbff"/><path d="M20 21v-1h11v1z" fill="#e6e9ee"/><path d="M17 25v-1h2v1z" fill="#84dbff"/><path d="M20 25v-1h11v1z" fill="#e6e9ee"/><path d="M17 28v-1h2v1z" fill="#84dbff"/><path d="M20 28v-1h11v1z" fill="#e6e9ee"/></svg>