<svg xmlns="http://www.w3.org/2000/svg" width="39" height="39" viewBox="0 0 39 39"><title>Oval</title><defs><linearGradient id="a" gradientUnits="userSpaceOnUse" x1="43.5" y1="1311.998" x2="43.5" y2="1333.998"><stop stop-color="#5978ba" offset="0"/><stop stop-color="#4e9db8" offset=".7"/><stop stop-color="#379cc9" offset="1"/></linearGradient></defs><path d="M0 19.5C0 8.73 8.73 0 19.5 0S39 8.73 39 19.5 30.27 39 19.5 39 0 30.27 0 19.5z" fill="#22536d"/><path d="M26.59 30.13c0 1.79-.64 2.43-2.43 2.43h-9.73c-1.79 0-2.43-.64-2.43-2.43V7.43C12 5.64 12.64 5 14.43 5h9.73c1.79 0 2.43.64 2.43 2.43z" fill="#202121"/><path d="M24 6.5a.5.5 0 1 1 1 0 .5.5 0 0 1-1 0z"/><path d="M20.94 31.85c0 .27-.17.5-.38.5h-2.19c-.2 0-.37-.23-.37-.5v-.35c0-.28.17-.5.37-.5h2.19c.21 0 .38.22.38.5z" fill="none" stroke-dasharray="0" stroke="#121212" stroke-miterlimit="50"/><path d="M37 1334v-22h13v22z" fill="url(#a)" transform="translate(-24 -1304)"/><path d="M20 24.5a.5.5 0 1 1 1 0 .5.5 0 0 1-1 0zm0-2a.5.5 0 1 1 1 0 .5.5 0 0 1-1 0z" fill="#fff"/><path d="M13 9V8h13v1z" fill="#202121"/><path d="M24 8.5a.5.5 0 1 1 1 0 .5.5 0 0 1-1 0zm-11 0a.5.5 0 1 1 1 0 .5.5 0 0 1-1 0zm12 0a.5.5 0 1 1 1 0 .5.5 0 0 1-1 0z" fill="#fff"/><path d="M16.23 22.78c0 .25-.2.45-.45.45h-1.33c-.25 0-.45-.2-.45-.45v-1.33c0-.25.2-.45.45-.45h1.33c.25 0 .45.2.45.45zm0 3c0 .25-.2.45-.45.45h-1.33c-.25 0-.45-.2-.45-.45v-1.33c0-.25.2-.45.45-.45h1.33c.25 0 .45.2.45.45z" fill="#6cc077"/><path d="M24.53 28.42c0 .2-.87.37-1.94.37h-5.65c-1.07 0-1.94-.17-1.94-.37v-1.06c0-.2.86-.36 1.94-.36h5.65c1.07 0 1.94.16 1.94.36z" fill="#22536d"/><path d="M25.15 18.97c0 .25-.2.45-.45.45H14.45c-.25 0-.45-.2-.45-.45v-.52c0-.25.2-.45.45-.45H24.7c.25 0 .45.2.45.45v.52z" fill="none" stroke-dasharray="0" stroke="#67b8cb" stroke-miterlimit="50" stroke-width=".5"/><path d="M24 18.5a.5.5 0 1 1 1 0 .5.5 0 0 1-1 0zm.52 1.06c-.02.02-.07.02-.11-.02l-.38-.38c-.03-.03-.04-.08-.01-.11l.03-.03c.03-.03.08-.02.11.01l.38.38c.04.04.04.09.02.11z" fill="#dbf0f5"/><path d="M14.45 17.17H24.7c.25 0 .45-.21.45-.46v-1.64l-.85-.85s-.48-.62-.93-.6c-.4.03-.87.53-.96.63l-.56-.56s-.57-.73-1.09-.7c-.53.03-1.15.76-1.15.76l-.18.17-1.06-1.06s-.69-.9-1.34-.86c-.64.04-1.41.94-1.41.94L14 14.55v2.16c0 .25.2.46.45.46z" fill="#6cc077"/><path d="M17.03 11.66c.65-.04 1.34.86 1.34.86l1.06 1.06.18-.17s.62-.73 1.15-.76c.52-.03 1.09.7 1.09.7l.56.56c.09-.1.56-.6.96-.63.45-.02.93.6.93.6l.85.85v-4.28c0-.25-.2-.45-.45-.45H14.45c-.25 0-.45.2-.45.45v3.76l1.62-1.62c0 .01.77-.89 1.41-.93z" fill="#dbf0f5"/></svg>