<svg xmlns="http://www.w3.org/2000/svg" width="87" height="87" viewBox="0 0 87 87"><title>Oval</title><path d="M0 43.5C0 19.476 19.476 0 43.5 0S87 19.476 87 43.5 67.524 87 43.5 87 0 67.524 0 43.5z" fill="#426980"/><path d="M60.76 44.71H44.42V33h-2.38v11.71H25.7c-2.59 0-4.7 2.07-4.7 4.61v5.14h2.38v-5.14c0-1.25 1.04-2.27 2.32-2.27h16.34v7.41h2.38v-7.41h16.34c1.28 0 2.32 1.02 2.32 2.27v5.14h2.38v-5.14c0-2.54-2.11-4.61-4.7-4.61z" fill="#f3f3f3"/><path d="M60.62 44.71H44.28V33H43v21.46h1.28v-7.41h16.34c1.28 0 2.32 1.02 2.32 2.27v5.14h2.38v-5.14c0-2.54-2.11-4.61-4.7-4.61z" fill="#f2f2f2"/><path d="M37 59.5a5.5 5.5 0 1 1 11 0 5.5 5.5 0 0 1-11 0zm21 0a5.5 5.5 0 1 1 11 0 5.5 5.5 0 0 1-11 0z" fill="#f9b65f"/><path d="M16 59.5a5.5 5.5 0 1 1 11 0 5.5 5.5 0 0 1-11 0z" fill="#ffcf6d"/><path d="M34 29.5a8.5 8.5 0 1 1 17 0 8.5 8.5 0 0 1-17 0z" fill="#c3e1ed"/><path d="M43 54v11.18c.03 0 .06.01.09.01 3.14 0 5.69-2.51 5.69-5.6S46.23 54 43.09 54H43z" fill="#e08d20"/><path d="M43.09 21H43v17.17h.09c4.82 0 8.73-3.84 8.73-8.59 0-4.74-3.91-8.58-8.73-8.58z" fill="#e08d21"/></svg>