<svg xmlns="http://www.w3.org/2000/svg" width="87" height="87" viewBox="0 0 87 87"><title>Oval</title><path d="M0 43.5C0 19.476 19.476 0 43.5 0S87 19.476 87 43.5 67.524 87 43.5 87 0 67.524 0 43.5z" fill="#426980"/><path d="M18 64V24h51v40z" fill="#c3e1ed"/><path d="M18 64V24h51v40z" fill="none" stroke-dasharray="0" stroke="#e7eced" stroke-miterlimit="50" stroke-width="2"/><path d="M26 34a6 6 0 1 1 12 0 6 6 0 0 1-12 0z" fill="#ed8a19"/><path d="M68.4 50.01L67.49 49 56.56 39 47 49.45l4.99 4.99 3.66 3.65H68.4zM19 62.62h21.86l-3.66-3.65L27.21 49 19 56.22z" fill="#1a9172"/><path d="M19 64v-5h49v5z" fill="#6b5b4b"/><path d="M51.48 54.97L41.5 45 26 58.62h29.14z" fill="#25ae88"/></svg>