<svg xmlns="http://www.w3.org/2000/svg" width="65" height="65" viewBox="0 0 65 65"><title>Oval</title><path d="M0 32.5C0 14.55 14.55 0 32.5 0S65 14.55 65 32.5 50.45 65 32.5 65 0 50.45 0 32.5z" fill="#22536d"/><path d="M18.46 53.11c-.47-.31-.6-.94-.3-1.41l4.71-7.24c.3-.47.93-.6 1.4-.3.47.31.6.94.3 1.41l-4.7 7.24c-.31.47-.94.6-1.41.3zm27.81 0c.47-.31.6-.94.3-1.41l-4.7-7.24c-.31-.47-.94-.6-1.41-.3-.47.31-.6.94-.3 1.41l4.71 7.24c.3.47.93.6 1.4.3z" fill="#8799a3"/><path d="M32.02 25.66c-.56 0-1.02-.45-1.02-1.01v-8.63c0-.56.46-1.02 1.02-1.02s1.01.46 1.01 1.02v8.63c0 .56-.45 1.01-1.01 1.01z" fill="#242424"/><path d="M54.18 19.03c0 1.12-.91 2.03-2.03 2.03H12.03c-1.12 0-2.03-.91-2.03-2.03 0-1.12.91-2.03 2.03-2.03h40.12c1.12 0 2.03.91 2.03 2.03z" fill="#9ea7ad"/><path d="M52.12 21v23.36c0 1.12-.92 2.03-2.03 2.03H14.03c-1.12 0-2.03-.91-2.03-2.03V21z" fill="#e6e6e6"/><path d="M29.51 30.55c-.13 0-.26-.04-.36-.14-.2-.2-.2-.52 0-.72l2.54-2.54c.2-.2.52-.2.72 0 .19.2.19.52 0 .72l-2.54 2.54c-.1.1-.23.14-.36.14z" fill="#cc584c"/><path d="M32.05 30.55c-.13 0-.26-.04-.36-.14l-2.54-2.54c-.2-.2-.2-.52 0-.72.2-.2.52-.2.72 0l2.54 2.54c.19.2.19.52 0 .72-.1.1-.23.14-.36.14zm-.54 13c-.13 0-.26-.04-.36-.14-.2-.2-.2-.52 0-.72l2.54-2.54c.2-.2.52-.2.72 0 .19.2.19.52 0 .72l-2.54 2.54c-.1.1-.23.14-.36.14z" fill="#cc584c"/><path d="M34.05 43.55c-.13 0-.26-.04-.36-.14l-2.54-2.54c-.2-.2-.2-.52 0-.72.2-.2.52-.2.72 0l2.54 2.54c.19.2.19.52 0 .72-.1.1-.23.14-.36.14zm2.46-6c-.13 0-.26-.04-.36-.14-.2-.2-.2-.52 0-.72l2.54-2.54c.2-.2.52-.2.72 0 .19.2.19.52 0 .72l-2.54 2.54c-.1.1-.23.14-.36.14z" fill="#cc584c"/><path d="M39.05 37.55c-.13 0-.26-.04-.36-.14l-2.54-2.54c-.2-.2-.2-.52 0-.72.2-.2.52-.2.72 0l2.54 2.54c.19.2.19.52 0 .72-.1.1-.23.14-.36.14z" fill="#cc584c"/><path d="M36 25.03c0-1.12.91-2.03 2.03-2.03 1.12 0 2.03.91 2.03 2.03 0 1.12-.91 2.03-2.03 2.03-1.12 0-2.03-.91-2.03-2.03zm1.02 0c0 .56.45 1.02 1.01 1.02s1.02-.46 1.02-1.02a1.016 1.016 0 0 0-2.03 0zM25 40.03c0-1.12.91-2.03 2.03-2.03 1.12 0 2.03.91 2.03 2.03 0 1.12-.91 2.03-2.03 2.03-1.12 0-2.03-.91-2.03-2.03zm1.02 0c0 .56.45 1.02 1.01 1.02s1.02-.46 1.02-1.02a1.016 1.016 0 0 0-2.03 0zm1.49-2.9c-.28 0-.51-.23-.51-.51 0-2.85 3.32-3.48 6.25-4.02 2.27-.43 4.41-.83 4.41-2.08v-1.01c0-.28.23-.51.51-.51s.51.23.51.51v1.01c0 2.09-2.67 2.59-5.25 3.07-3.17.6-5.41 1.16-5.41 3.03 0 .28-.23.51-.51.51z" fill="#406a80"/><path d="M39.55 30.54a.47.47 0 0 1-.35-.15l-1.17-1.16-1.16 1.16c-.2.2-.52.2-.72 0-.2-.2-.2-.52 0-.72l1.52-1.52c.2-.2.52-.2.72 0l1.52 1.52c.2.2.2.52 0 .72-.1.1-.23.15-.36.15z" fill="#406a80"/><path d="M12 22v-1h40v1z" fill="#b3b3b3"/></svg>