<svg xmlns="http://www.w3.org/2000/svg" width="48" height="48" viewBox="0 0 48 48"><title>Oval</title><path d="M0 24C0 10.745 10.745 0 24 0s24 10.745 24 24-10.745 24-24 24S0 37.255 0 24z" fill="#426980"/><path d="M25 10c-6.63 0-12 5.37-12 11.99 0 2.08.53 4.03 1.46 5.73L13 33.98l6.27-1.45c1.7.93 3.65 1.45 5.73 1.45 6.63 0 12-5.37 12-11.99S31.63 10 25 10z" fill="none" stroke-dasharray="0" stroke="#fafafa" stroke-miterlimit="50" stroke-width="2"/><path d="M23.03 24.82v-1.21c0-.52.06-.92.19-1.17.12-.26.4-.6.83-1.02l1.44-1.44c.3-.33.46-.74.46-1.23s-.16-.89-.48-1.21c-.32-.32-.72-.49-1.23-.49-.5 0-.91.15-1.26.47-.33.31-.53.72-.58 1.23H20c.13-1.17.59-2.09 1.37-2.75.79-.66 1.77-1 2.94-1 1.18 0 2.13.32 2.87.96.74.64 1.11 1.53 1.11 2.68 0 .79-.21 1.45-.65 1.97-.25.32-.44.55-.57.68-.13.13-.31.29-.53.5-.22.2-.4.38-.56.53-.15.16-.27.29-.36.39-.24.29-.36.7-.36 1.23v.88zm1.16 4.39c.41 0 .77-.14 1.06-.43.3-.29.44-.64.44-1.04 0-.41-.14-.75-.45-1.03-.3-.28-.66-.43-1.07-.43-.41 0-.77.15-1.07.44-.3.29-.44.63-.44 1.03 0 .41.15.75.45 1.03.31.29.67.43 1.08.43z" fill="#ff7058"/></svg>