<svg xmlns="http://www.w3.org/2000/svg" width="39" height="39" viewBox="0 0 39 39"><title>Oval</title><path d="M0 19.5C0 8.73 8.73 0 19.5 0S39 8.73 39 19.5 30.27 39 19.5 39 0 30.27 0 19.5z" fill="#22536d"/><path d="M29.04 32.67H9.36c-.2 0-.36-.16-.36-.36V7.36c0-.2.16-.36.36-.36h19.69c.2 0 .36.16.36.36v24.95c-.01.2-.17.36-.37.36z" fill="#528fb9"/><path d="M11 8v20.3h13.53v-2.86h2.86V8z" fill="#fff"/><path d="M21.05 6.17v-.56a1.609 1.609 0 1 0-3.22 0v.56H15v3.29h8.89V6.17z" fill="#ced5e0"/><path d="M19 5a1 1 0 1 1 2 0 1 1 0 0 1-2 0z" fill="#324a5e"/><path d="M22.15 14.07c0 1.7-1.38 3.08-3.08 3.08-1.7 0-3.07-1.38-3.07-3.08 0-1.7 1.37-3.07 3.07-3.07v3.07z" fill="#fab141"/><path d="M23.07 13.07H20V10c1.7.01 3.07 1.38 3.07 3.07z" fill="#84dbff"/><path d="M25 28.86L27.86 26H25zM13 22v-1h13v1zm0-2v-1h13v1zm0 4v-1h13v1z" fill="#e6e9ee"/></svg>