<svg xmlns="http://www.w3.org/2000/svg" width="76" height="76" viewBox="0 0 76 76"><title>Oval</title><path d="M0 38C0 17.013 17.013 0 38 0s38 17.013 38 38-17.013 38-38 38S0 58.987 0 38z" fill="#426980"/><path d="M46.42 23.51H33.25c-.69 0-1.25-.56-1.25-1.25 0-.7.56-1.26 1.25-1.26h13.17a1.255 1.255 0 1 1 0 2.51zM19 25.03c0 2.77 2.25 5.02 5.02 5.02 2.77 0 5.01-2.25 5.01-5.02 0-2.78-2.24-5.03-5.01-5.03-2.77 0-5.02 2.25-5.02 5.03zm4.62 2.12a.62.62 0 0 1-.44.18.62.62 0 0 1-.44-.18l-1.67-1.68a.622.622 0 0 1 0-.89c.24-.24.64-.24.88 0l1.23 1.23 2.9-2.9c.25-.25.64-.25.89 0 .24.24.24.64 0 .89z" fill="#84dbff"/><path d="M52.17 26.26H39.63c-.35 0-.63-.28-.63-.63s.28-.63.63-.63h12.54c.35 0 .63.28.63.63s-.28.63-.63.63zm-14.53 0h-5.01c-.35 0-.63-.28-.63-.63s.28-.63.63-.63h5.01c.35 0 .63.28.63.63s-.28.63-.63.63z" fill="#afb9d2"/><path d="M54.39 29.26h-3.76c-.35 0-.63-.28-.63-.63s.28-.63.63-.63h3.76c.35 0 .63.28.63.63s-.28.63-.63.63zm-5.46 0h-16.3c-.35 0-.63-.28-.63-.63s.28-.63.63-.63h16.3c.35 0 .63.28.63.63s-.28.63-.63.63z" fill="#c7cfe2"/><path d="M46.42 36.51H33.25c-.69 0-1.25-.56-1.25-1.25 0-.7.56-1.26 1.25-1.26h13.17a1.255 1.255 0 1 1 0 2.51zM19 38.03c0 2.77 2.25 5.02 5.02 5.02 2.77 0 5.01-2.25 5.01-5.02 0-2.78-2.24-5.03-5.01-5.03-2.77 0-5.02 2.25-5.02 5.03zm4.62 2.12a.62.62 0 0 1-.44.18.62.62 0 0 1-.44-.18l-1.67-1.68a.622.622 0 0 1 0-.89c.24-.24.64-.24.88 0l1.23 1.23 2.9-2.9c.25-.25.64-.25.89 0 .24.24.24.64 0 .89z" fill="#fda589"/><path d="M52.17 39.26H39.63c-.35 0-.63-.28-.63-.63s.28-.63.63-.63h12.54c.35 0 .63.28.63.63s-.28.63-.63.63zm-14.53 0h-5.01c-.35 0-.63-.28-.63-.63s.28-.63.63-.63h5.01c.35 0 .63.28.63.63s-.28.63-.63.63z" fill="#afb9d2"/><path d="M54.39 42.26h-3.76c-.35 0-.63-.28-.63-.63s.28-.63.63-.63h3.76c.35 0 .63.28.63.63s-.28.63-.63.63zm-5.46 0h-16.3c-.35 0-.63-.28-.63-.63s.28-.63.63-.63h16.3c.35 0 .63.28.63.63s-.28.63-.63.63z" fill="#c7cfe2"/><path d="M44.54 49.51H33.25c-.69 0-1.25-.56-1.25-1.25 0-.7.56-1.26 1.25-1.26h11.29a1.255 1.255 0 1 1 0 2.51zM24.02 46a5.025 5.025 0 0 0 0 10.05c2.77 0 5.01-2.25 5.01-5.02 0-2.78-2.24-5.03-5.01-5.03z" fill="#eff2fa"/><path d="M52.17 52.26H39.63c-.35 0-.63-.28-.63-.63s.28-.63.63-.63h12.54c.35 0 .63.28.63.63s-.28.63-.63.63zm-14.53 0h-5.01c-.35 0-.63-.28-.63-.63s.28-.63.63-.63h5.01c.35 0 .63.28.63.63s-.28.63-.63.63z" fill="#afb9d2"/><path d="M54.39 55.26h-3.76c-.35 0-.63-.28-.63-.63s.28-.63.63-.63h3.76c.35 0 .63.28.63.63s-.28.63-.63.63zm-5.46 0h-16.3c-.35 0-.63-.28-.63-.63s.28-.63.63-.63h16.3c.35 0 .63.28.63.63s-.28.63-.63.63z" fill="#c7cfe2"/></svg>