<svg xmlns="http://www.w3.org/2000/svg" width="39" height="39" viewBox="0 0 39 39"><title>Shape</title><path d="M39 19.5C39 30.27 30.27 39 19.5 39S0 30.27 0 19.5 8.73 0 19.5 0C28 0 35.23 5.44 37.9 13.03c.57 1.62.94 3.34 1.06 5.13.02.44.04.89.04 1.34z" fill="#22536d"/><path d="M34.07 27H4.32c-.24 0-.4.25-.28.46l.47.88c.37.7 1.09 1.12 1.88 1.12H32c.78 0 1.5-.43 1.87-1.12l.47-.88a.312.312 0 0 0-.27-.46z" fill="#324a5e"/><path d="M32.44 26.96H7.2c-.11 0-.2-.09-.2-.21V9.2c0-.11.08-.2.2-.2h25.24c.11 0 .2.08.2.2v17.55c-.01.11-.09.21-.2.21z" fill="#2b3b4e"/><path d="M8 25V11h23v14z" fill="#fff"/><path d="M19 10.5a.5.5 0 1 1 1 0 .5.5 0 0 1-1 0z" fill="#324a5e"/><path d="M11 15v-2h2v2z" fill="#ffd05b"/><path d="M14 14v-1h5v1zm0 1v-1h3v1z" fill="#e6e9ee"/><path d="M21 15v-2h2v2z" fill="#54c0eb"/><path d="M24 14v-1h5v1zm0 1v-1h3v1zm-13 9v-6h2v6zm4 0v-6h2v6zm4 0v-6h2v6zm3 0v-6h2v6zm4 0v-6h2v6z" fill="#e6e9ee"/><path d="M11 24v-4h2v4zm4-1v-2h2v2zm4 1v-5h2v5zm3-1v-3h2v3zm4 0v-4h2v4z" fill="#4cdbc4"/><path d="M23.24 27.56h-6.68L16 27h7.8z" fill="#acb3ba"/></svg>