<svg xmlns="http://www.w3.org/2000/svg" width="48" height="48" viewBox="0 0 48 48"><title>Oval</title><path d="M0 24C0 10.745 10.745 0 24 0s24 10.745 24 24-10.745 24-24 24S0 37.255 0 24z" fill="#426980"/><path d="M17 24.13c0 3.93 3.2 7.12 7.13 7.12 3.94 0 7.13-3.19 7.13-7.12S28.07 17 24.13 17C20.2 17 17 20.2 17 24.13zm1.02 0c0-3.37 2.74-6.11 6.11-6.11s6.12 2.74 6.12 6.11-2.75 6.11-6.12 6.11-6.11-2.74-6.11-6.11z" fill="#eee"/><path d="M35.07 20.69c-.27-.97-.65-1.9-1.16-2.78l.73-.72c.27-.27.42-.63.42-1 0-.38-.15-.74-.42-1.01l-2.32-2.31c-.53-.54-1.47-.54-2 0l-.73.72c-.87-.5-1.8-.89-2.78-1.15v-1.02c0-.79-.63-1.42-1.41-1.42h-3.29c-.78 0-1.41.63-1.41 1.42v1.02c-.98.26-1.91.65-2.78 1.15l-.73-.72c-.53-.54-1.47-.54-2 0l-2.32 2.32c-.27.26-.42.62-.42 1 0 .37.15.73.42 1l.73.72c-.51.88-.89 1.81-1.16 2.78h-1.02c-.78 0-1.42.64-1.42 1.42v3.27c0 .79.64 1.42 1.42 1.42h1.02c.27.97.65 1.9 1.16 2.78l-.73.72c-.27.27-.42.63-.42 1 0 .38.15.74.42 1.01l2.32 2.31c.53.54 1.47.54 2 0l.73-.72c.87.5 1.81.89 2.78 1.15v1.03c0 .78.63 1.41 1.42 1.41h3.28c.78 0 1.41-.63 1.41-1.41v-1.03c.98-.26 1.91-.65 2.78-1.15l.73.72c.53.54 1.47.54 2 0l2.32-2.31c.27-.27.42-.63.42-1.01 0-.37-.15-.73-.42-1l-.73-.72c.51-.88.89-1.81 1.16-2.78h1.02c.79 0 1.42-.63 1.42-1.42v-3.27c0-.78-.64-1.42-1.42-1.42zm1.02 5.09h-1.83l-.09.4c-.26 1.13-.71 2.21-1.33 3.21l-.21.34 1.29 1.29c.16.16.16.41 0 .57L31.6 33.9c-.15.16-.41.16-.56 0l-1.29-1.29-.35.22c-.99.61-2.07 1.06-3.21 1.33l-.4.09v1.83c0 .21-.18.39-.39.39h-3.29c-.21 0-.39-.18-.39-.39v-1.83l-.4-.09c-1.14-.27-2.22-.72-3.21-1.33l-.35-.22-1.29 1.29c-.15.16-.41.16-.56 0l-2.32-2.31a.398.398 0 0 1 0-.57l1.29-1.29-.21-.34c-.62-.99-1.07-2.08-1.33-3.21l-.09-.4h-1.83c-.22 0-.4-.18-.4-.4v-3.27c0-.22.18-.4.4-.4h1.83l.09-.39c.26-1.14.71-2.22 1.33-3.22l.21-.34-1.29-1.29a.398.398 0 0 1 0-.57l2.32-2.31c.15-.16.41-.16.56 0l1.29 1.29.35-.21c.99-.62 2.07-1.07 3.21-1.33l.4-.1v-1.82c0-.22.18-.4.39-.4h3.28c.22 0 .4.18.4.4v1.82l.4.1c1.14.26 2.22.71 3.21 1.33l.35.21 1.29-1.29c.15-.16.41-.16.56 0l2.32 2.31c.16.16.16.41 0 .57l-1.29 1.29.21.34c.62.99 1.07 2.08 1.33 3.22l.09.39h1.83c.22 0 .4.18.4.4v3.27c0 .22-.18.4-.4.4z" fill="#eee"/><path d="M19 24.09c0 2.81 2.29 5.09 5.09 5.09 2.81 0 5.1-2.28 5.1-5.09S26.9 19 24.09 19c-2.8 0-5.09 2.28-5.09 5.09zm1.02 0a4.08 4.08 0 0 1 4.07-4.07c2.25 0 4.08 1.83 4.08 4.07a4.076 4.076 0 0 1-8.15 0z" fill="#84dbff"/></svg>