<svg xmlns="http://www.w3.org/2000/svg" width="48" height="48" viewBox="0 0 48 48"><title>Oval</title><path d="M0 24C0 10.745 10.745 0 24 0s24 10.745 24 24-10.745 24-24 24S0 37.255 0 24z" fill="#426980"/><path d="M36.33 30.28c0 .83-.66 1.53-1.48 1.53H11.48c-.82 0-1.48-.7-1.48-1.53V13.49c0-.84.66-1.49 1.48-1.49h23.37c.82 0 1.48.65 1.48 1.49z" fill="#bdc3c7"/><path d="M34.88 29.76c0 .42-.33.76-.74.76h-22.4a.75.75 0 0 1-.74-.76v-13c0-.42.33-.76.74-.76h22.4c.41 0 .74.34.74.76z" fill="#fff"/><path d="M33.44 22.75c0 .42-.34.75-.75.75H12.74a.74.74 0 0 1-.74-.75v-4.99c0-.42.33-.76.74-.76h19.95c.41 0 .75.34.75.76zm-10.65 2.86c0 .08-.07.15-.15.15h-9.49c-.08 0-.15-.07-.15-.15v-.46c0-.08.07-.15.15-.15h9.49c.08 0 .15.07.15.15zm0 1c0 .08-.07.15-.15.15h-9.49c-.08 0-.15-.07-.15-.15v-.46c0-.08.07-.15.15-.15h9.49c.08 0 .15.07.15.15zm0 2c0 .08-.07.15-.15.15h-9.49c-.08 0-.15-.07-.15-.15v-.46c0-.08.07-.15.15-.15h9.49c.08 0 .15.07.15.15zm11-.66c0 .42-.33.76-.74.76h-8.31a.75.75 0 0 1-.74-.76v-2.19c0-.42.33-.76.74-.76h8.31c.41 0 .74.34.74.76z" fill="#bdc3c7"/><path d="M11 13.5a.5.5 0 1 1 1 0 .5.5 0 0 1-1 0z" fill="#fff"/><path d="M11 13.5a.5.5 0 1 1 1 0 .5.5 0 0 1-1 0z" fill="#ee483c"/><path d="M14 13.5a.5.5 0 1 1 1 0 .5.5 0 0 1-1 0z" fill="#f4c342"/><path d="M16 13.5a.5.5 0 1 1 1 0 .5.5 0 0 1-1 0z" fill="#00ca77"/><path d="M26 31.5a6.5 6.5 0 1 1 13 0 6.5 6.5 0 0 1-13 0z" fill="#1c99d8"/><path d="M27 32a5 5 0 1 1 10 0 5 5 0 0 1-10 0z" fill="#fff"/><path d="M28.36 32.76h-.96c-.22 0-.4-.16-.4-.38 0-.23.18-.38.4-.38h.96c.22 0 .4.15.4.38 0 .22-.18.38-.4.38zm7 0h-.96c-.22 0-.4-.16-.4-.38 0-.23.18-.38.4-.38h.96c.22 0 .4.15.4.38 0 .22-.18.38-.4.38zm-5.56-2.37l-.68-.7a.398.398 0 0 1 0-.57c.15-.16.4-.16.56 0l.68.69c.16.16.16.42 0 .58-.15.16-.41.16-.56 0zm5 5l-.68-.7a.398.398 0 0 1 0-.57c.15-.16.4-.16.56 0l.68.69c.16.16.16.42 0 .58-.15.16-.41.16-.56 0zm-.68-5.57l.68-.7c.15-.16.41-.16.56 0 .16.16.16.41 0 .57l-.68.7c-.16.16-.41.16-.56 0a.398.398 0 0 1 0-.57zm-5 4.99l.68-.69c.15-.16.41-.16.56 0 .16.16.16.41 0 .57l-.68.7c-.16.16-.41.16-.56 0a.41.41 0 0 1 0-.58zM31 28.39v-.98c0-.23.19-.41.41-.41.22 0 .41.18.41.41v.98c0 .22-.19.41-.41.41-.22 0-.41-.19-.41-.41z" fill="#f4c342"/><path d="M33.55 31.4l1.32-2.24c.1-.17.05-.21-.1-.1L32.7 30.6c-.47-.14-1-.01-1.35.38-.5.55-.46 1.4.08 1.9.53.5 1.37.47 1.86-.08.36-.39.44-.94.26-1.4z" fill="#32495d"/></svg>