<svg xmlns="http://www.w3.org/2000/svg" width="48" height="48" viewBox="0 0 48 48"><title>Oval</title><path d="M0 24C0 10.745 10.745 0 24 0s24 10.745 24 24-10.745 24-24 24S0 37.255 0 24z" fill="#426980"/><path d="M33.1 35H32v1.11h1.1" fill="#29abe2"/><path d="M17.26 23v1.11h2.15V23zm2.75 0v1.11h2.15V23zm3.85 0h-1.1v1.11h1.1c.29 0 .58.06.84.15l.38-1.04a3.52 3.52 0 0 0-1.22-.22zm1.85.54l-.58.94c.49.31.87.8 1.03 1.38l1.06-.31c-.24-.84-.79-1.56-1.51-2.01zm1.65 2.99c0-.09-.01-.19-.01-.28l-1.1.09c.01.06.01.13.01.19 0 .56-.18 1.06-.49 1.47l.88.67c.44-.59.71-1.34.71-2.14zm-3.5 3.54a3.574 3.574 0 0 0 2.31-.88l-.73-.84c-.21.19-.46.34-.72.45-.27.1-.56.16-.86.16h-.03v1.11zm-.63 0v-1.11h-2.15v1.11zm-4.73 0h1.98v-1.11H18.3l.06 1.11h.14zm-.62.08l-.28-1.08c-.84.23-1.56.76-2.03 1.48l.92.61c.32-.49.82-.86 1.39-1.01zm-1.78 2.34c0-.32.06-.62.17-.9l-1.02-.41a3.59 3.59 0 0 0-.04 2.53l1.04-.39c-.1-.26-.15-.54-.15-.83zm.36 1.27l-.94.58a3.53 3.53 0 0 0 1.99 1.54l.31-1.07c-.57-.17-1.06-.55-1.36-1.05zm2.04 1.15c-.07 0-.14 0-.21-.01l-.09 1.11c.1.01.2.01.3.01h1.9v-1.11zm2.49 0v1.11h2.16v-1.11zm2.75 0v1.11h2.16v-1.11zm2.75 0v1.11h2.16v-1.11zm4.91 0v1.11h-2.16v-1.11z" fill="#fff"/><path d="M16.1 23H15v1.11h1.1" fill="#29abe2"/><path d="M19.33 14.7c0 .61-.15 1.22-.45 1.78L17 19.93l-1.33 2.47-3.22-5.92c-.78-1.44-.53-3.23.62-4.4.39-.38.83-.66 1.31-.84.41-.16.85-.24 1.29-.24.93 0 1.87.36 2.59 1.08.7.72 1.07 1.66 1.07 2.62" fill="#2be0c6"/><path d="M36.33 26.7c0 .61-.15 1.22-.45 1.78l-1.79 3.29-1.42 2.63-3.22-5.92c-.78-1.44-.53-3.23.62-4.4.42-.42.91-.71 1.43-.89a3.66 3.66 0 0 1 3.76.89c.7.72 1.07 1.66 1.07 2.62" fill="#fc7a51"/><path d="M16.56 16.76c0-.72-.57-1.3-1.28-1.3-.23 0-.42-.19-.42-.43 0-.23.19-.43.42-.43h.85v-.86h-.42V13h-.86v.82c-.49.17-.85.65-.85 1.21 0 .72.57 1.3 1.28 1.3a.425.425 0 1 1 0 .85h-.85v.87h.42v.74h.86v-.82c.49-.18.85-.65.85-1.21" fill="#fff"/><path d="M35.31 26.68c0-1.48-1.19-2.68-2.65-2.68A2.67 2.67 0 0 0 30 26.68a2.67 2.67 0 0 0 2.66 2.68c1.46 0 2.65-1.2 2.65-2.68" fill="#f9de58"/><path d="M33.82 26.93c0-1.07-.86-1.93-1.91-1.93-1.06 0-1.91.86-1.91 1.93 0 1.06.85 1.92 1.91 1.92 1.05 0 1.91-.86 1.91-1.92" fill="#fff"/><path d="M32.38 25H32v1.74h1.34v-.38h-.96V25" fill="gray"/><path d="M15.61 16.57c.06-.08.1-.18.1-.28 0-.2-.13-.37-.31-.42zM15.29 11c.94 0 1.87.36 2.59 1.08.71.72 1.07 1.66 1.07 2.62 0 .61-.14 1.22-.45 1.78l-1.87 3.45-.76-2.49a1.292 1.292 0 0 0-.58-2.44.42.42 0 0 1-.16-.04l-.2-.63c.08-.12.21-.19.36-.19h.85v-.87h-.42v-.74h-.86v.82c-.07.02-.13.05-.19.09l-.67-2.2c.41-.16.85-.24 1.29-.24z" fill="#6fead8"/><path d="M15.74 16.34c.18.05.31.22.31.42 0 .1-.04.2-.1.28l.26.86c.41-.21.69-.64.69-1.14 0-.72-.57-1.3-1.28-1.3-.05 0-.11-.01-.16-.03zm.31-3.34v.74h.43v.86h-.86a.43.43 0 0 0-.35.2l-.27-.89c.06-.04.13-.07.2-.09V13z" fill="#fff"/><path d="M32.16 23c-.39 0-.78.06-1.16.19l.3 1a2.67 2.67 0 0 1 3.52 2.54c0 1.24-.84 2.29-1.97 2.59l.74 2.45 1.79-3.29c.3-.56.45-1.17.45-1.78 0-.96-.37-1.9-1.07-2.62a3.665 3.665 0 0 0-2.6-1.08" fill="#fda589"/><path d="M31.86 24c-.3 0-.59.05-.86.14l.22.73c.2-.08.42-.12.64-.12 1.06 0 1.91.87 1.91 1.93 0 .9-.61 1.66-1.44 1.87l.22.72c1.13-.3 1.97-1.35 1.97-2.59A2.67 2.67 0 0 0 31.86 24" fill="#fbe98e"/><path d="M32.64 25c-.22 0-.44.04-.64.11l.52 1.74v-1.37h.39v1.35h.96v.39h-1.23l.47 1.58c.83-.22 1.44-.97 1.44-1.87 0-1.07-.85-1.93-1.91-1.93" fill="#fff"/><path d="M32.38 25H32v1.37l.11.37h1.23v-.38h-.96V25" fill="#a9a9a9"/></svg>