<svg xmlns="http://www.w3.org/2000/svg" width="48" height="48" viewBox="0 0 48 48"><title>Oval</title><path d="M0 24C0 10.745 10.745 0 24 0s24 10.745 24 24-10.745 24-24 24S0 37.255 0 24z" fill="#426980"/><path d="M31.28 33.36c1.11.49 4.2 1.88 5.29 2.33.12.06.41.04.37-.22-.25-2.64-1.73-17.75-1.99-20.42-.04-.39-.16-.45-.45-.55-.87-.32-2.98-1.07-3.85-1.38-.3-.12-.49-.12-.81 0-1.36.39-5.66 1.7-5.66 1.7s-4.48-1.35-5.88-1.74c-.3-.1-.47-.12-.81.02-.89.29-2.96 1.06-3.85 1.38-.37.14-.41.3-.45.55-.28 2.61-1.91 17.78-2.19 20.44-.02.3.24.28.49.2 1.21-.49 4.3-1.82 5.39-2.27.22-.1.45-.16.81 0 1.24.51 4.87 2.15 6.07 2.63.26.13.5.15.81 0 1.19-.5 4.7-2.12 5.88-2.65.22-.12.56-.14.83-.02z" fill="#f4f0d3"/><path d="M17.49 13.09c-.89.28-2.96 1.05-3.85 1.38-.37.14-.41.3-.45.54-.28 2.62-1.91 17.79-2.19 20.44-.02.31.24.29.49.21 1.21-.49 4.3-1.83 5.39-2.27.16-.06.31-.13.53-.09l.63-20.29c-.16-.02-.33 0-.55.08zm12.65-.08l.63 20.25c-.1.02-.2.04-.28.09-1.18.52-4.69 2.14-5.88 2.65-.14.06-.29.1-.41.1V14.81c.18-.06 4.32-1.32 5.68-1.72.1-.04.18-.06.26-.08z" fill="#e8e4c8"/><path d="M20.77 34.8l3.54-3.54 3.61 3.61c.75-.35 1.48-.69 2.07-.96L17.04 20.98l6.28-6.29c-.65-.2-1.5-.45-2.31-.69l-5.48 5.47-2.25-2.25c-.08.77-.18 1.71-.28 2.74l9.81 9.82-4.11 4.11c.57.25 1.32.57 2.07.91z" fill="#efc75e"/><path d="M18.23 16l-2.7 2.68-2.25-2.23c-.08.77-.18 1.7-.28 2.73l4.99 4.99.08-2.94-1.01-1.01 1.07-1.12zm6.25 14.66v-3.02l5.49 5.49c-.59.27-1.32.61-2.07.96z" fill="#e3bd59"/><path d="M26.88 10c3.24 0 5.88 2.64 5.88 5.9 0 .06-.02 1.58-.53 2.66-1.19 2.77-4.07 5.72-5.03 6.67-.24.22-.34.26-.64-.02-.98-.96-3.82-3.85-5.01-6.61-.43-.81-.55-2.56-.55-2.7 0-3.26 2.64-5.9 5.88-5.9z" fill="#e2574c"/><path d="M24 16.04c0 1.68 1.36 3.04 3.04 3.04s3.04-1.36 3.04-3.04S28.72 13 27.04 13 24 14.36 24 16.04zm1.22 0c0-1.01.81-1.82 1.82-1.82 1.02 0 1.83.81 1.83 1.82 0 1.02-.81 1.83-1.83 1.83-1.01 0-1.82-.81-1.82-1.83z" fill="#fff"/></svg>