<svg xmlns="http://www.w3.org/2000/svg" width="76" height="76" viewBox="0 0 76 76"><title>Oval</title><path d="M0 38C0 17.013 17.013 0 38 0s38 17.013 38 38-17.013 38-38 38S0 58.987 0 38z" fill="#426980"/><path d="M54.95 24.87v28.45c0 .81-.67 1.48-1.48 1.48h-2.61V29l-6.91-6.92H26v-2.6c0-.81.67-1.48 1.48-1.48h20.56v5.39c0 .8.67 1.48 1.48 1.48z" fill="#e6e9ee"/><path d="M48 18v5.39c0 .8.67 1.48 1.48 1.48h5.39z" fill="#54c0eb"/><path d="M44.04 22H23.48c-.81 0-1.48.67-1.48 1.48v33.84c0 .81.67 1.48 1.48 1.48h25.94c.81 0 1.48-.67 1.48-1.48V28.87h-5.38c-.81 0-1.48-.68-1.48-1.48z" fill="#fff"/><path d="M44 22v5.39c0 .8.67 1.48 1.48 1.48h5.39z" fill="#84dbff"/><path d="M44 22v5.39c0 .8.67 1.48 1.48 1.48h5.39z" fill="#fff"/><path d="M36.52 43.23c-.04 0-.04 0 0 0-.04 0-.04 0 0 0-2.82-1.39-2.51-3.14-2.51-3.14V40c.67.85 1.57 1.39 2.51 1.39.95 0 1.8-.54 2.52-1.39v.13c0 .27.04 1.84-2.52 3.1z" fill="#f9b54c"/><path d="M36.29 51.68c3.77 0 7.14-1.79 9.29-4.58l-1.21-3.68L39.34 41c0 .85-.04 2.38-.31 4.26-.63-1.97-2.74-2.11-2.74-2.11s-2.11.18-2.74 2.16c-.27-1.93-.31-3.41-.31-4.31l-5.03 2.42L27 47.1a11.71 11.71 0 0 0 9.29 4.58z" fill="#324a5e"/><path d="M39.51 40s.32 1.8-2.51 3.14c0 0 2.11.18 2.74 2.16.04.04 1.16-4.27-.23-5.3z" fill="#fff"/><path d="M34.69 40s-.31 1.8 2.52 3.14c0 0-2.11.18-2.74 2.16-.04.04-1.17-4.27.22-5.3z" fill="#fff"/><path d="M40.49 37.25c.09-.49.13-1.03.13-1.48 0-2.69-1.66-3.77-3.73-3.77-2.06 0-3.72 1.08-3.72 3.77 0 .49.04.99.13 1.48-.31.14-.4.63-.18 1.08.18.31.45.54.72.54.68 1.61 1.8 2.87 3.05 2.87 1.26 0 2.38-1.26 3.06-2.87.27 0 .54-.23.71-.54.23-.45.14-.9-.17-1.08z" fill="#ffd05b"/><path d="M36.32 30s1.62.04 3.06 1.39c3.14 2.96-.18 7.36-.18 7.36s.45-1.08.27-2.2c-.05-.4-.09-.85-.09-1.25.04-.77-.14-1.93-1.98-1.62 0 0-1.03.76-3.54.13 0 0-1.62 2.47-.72 4.58 0 0-2.65-3.99.13-6.55l-.72.18s1.04-1.93 3.15-1.26c0 0-.18-.31-.86-.49 0 0 .95-.4 1.48.27 0-.05.32-.27 0-.54z" fill="#324a5e"/></svg>