<svg xmlns="http://www.w3.org/2000/svg" width="48" height="48" viewBox="0 0 48 48"><title>Oval</title><path d="M0 24C0 10.745 10.745 0 24 0s24 10.745 24 24-10.745 24-24 24S0 37.255 0 24z" fill="#426980"/><path d="M11 22.82l4.63-6.86.53-.96.36 1.04 5.97 14.16 10.68-8.62 2.72 1.74v1.2l-2.66-1.68-11.15 9-6.14-14.53-4.09 6.08z" fill="#84dbff"/><path d="M15.55 26.97L23.33 15l7.25 16.23 5.19-1.02v1.03l-5.78 1.15-6.83-15.27-6.86 10.57-4.7 3.43-.6-.82z" fill="#ff7058"/><path d="M11 36.09h25.1v-1.36H12.36V11H11z" fill="#fff"/><path d="M36 33v5.01l3.39-2.51zM9 11.39h5.02L11.51 8z" fill="#fff"/></svg>