<svg xmlns="http://www.w3.org/2000/svg" width="49" height="49" viewBox="0 0 49 49"><title>Oval</title><path d="M1 24C1 10.745 11.745 0 25 0s24 10.745 24 24-10.745 24-24 24S1 37.255 1 24z" fill="#426980"/><path d="M0 24.5C0 10.969 10.969 0 24.5 0S49 10.969 49 24.5 38.031 49 24.5 49 0 38.031 0 24.5z" fill="#426980"/><path d="M37.18 41.25H12.46a.45.45 0 0 1-.46-.45V9.46c0-.26.2-.46.46-.46h24.73c.25 0 .45.2.45.46V40.8c0 .25-.21.45-.46.45z" fill="#324a5e"/><path d="M14 11v25.5h17v-3.59h3.59V11z" fill="#fff"/><path d="M31 36.59L34.59 33H31z" fill="#e6e9ee"/><path d="M26.6 7.73v-.71C26.6 5.9 25.7 5 24.58 5s-2.02.9-2.02 2.02v.71H19v4.13h11.17V7.73z" fill="#ff7058"/><path d="M23 7a1 1 0 1 1 2 0 1 1 0 0 1-2 0z" fill="#ffd05b"/><path d="M17 19v-1h2v1z" fill="#84dbff"/><path d="M21 19v-1h11v1z" fill="#e6e9ee"/><path d="M17 22v-1h2v1z" fill="#84dbff"/><path d="M21 22v-1h11v1z" fill="#e6e9ee"/><path d="M17 25v-1h2v1z" fill="#84dbff"/><path d="M21 25v-1h11v1z" fill="#e6e9ee"/><path d="M17 28v-1h2v1z" fill="#84dbff"/><path d="M21 28v-1h11v1z" fill="#e6e9ee"/></svg>