<svg xmlns="http://www.w3.org/2000/svg" width="48" height="48" viewBox="0 0 48 48"><title>Oval</title><path d="M0 24C0 10.745 10.745 0 24 0s24 10.745 24 24-10.745 24-24 24S0 37.255 0 24z" fill="#426980"/><path d="M13 34v-6h7v6z" fill="#556080"/><path d="M13 28V13h7v15z" fill="#71c285"/><path d="M20 28V13h7v15z" fill="#e4c05c"/><path d="M20 34v-6h7v6z" fill="#47516b"/><path d="M27 28V13h7v15z" fill="#f09372"/><path d="M27 34v-6h7v6z" fill="#556080"/><path d="M15 33v-4h4v4z" fill="#8a98bc"/><path d="M22 33v-4h4v4z" fill="#626f8e"/><path d="M29 33v-4h4v4z" fill="#8a98bc"/><path d="M15 17v-2h4v2zm7 0v-2h4v2zm7 0v-2h4v2z" fill="#fff"/></svg>