<svg xmlns="http://www.w3.org/2000/svg" width="48" height="48" viewBox="0 0 48 48"><title>Oval</title><path d="M0 24C0 10.745 10.745 0 24 0s24 10.745 24 24-10.745 24-24 24S0 37.255 0 24z" fill="#426980"/><path d="M31.89 17.34V34.7H16V22.91a3.01 3.01 0 0 0 1.83-.86l4.64-4.59a.616.616 0 0 0-.87-.87l-4.64 4.59c-.27.27-.61.44-.96.5v-7.67h5.3l-4.11 4.08c-.24.23-.24.62 0 .86s.63.24.87 0l4.67-4.63c.1-.1.19-.21.27-.32h5.54v3.33h3.35z" fill="#fff"/><path d="M22.47 17.18c.24.24.24.62 0 .87l-4.64 4.59c-.51.51-1.16.8-1.83.86v-1.23c.35-.06.69-.22.96-.49l4.64-4.6c.23-.24.63-.24.87 0zm.52-3.18c-.08.11-.16.22-.27.32l-4.66 4.62a.61.61 0 0 1-.88 0 .604.604 0 0 1 0-.86L21.29 14h1.7z" fill="#fff"/><path d="M29 14l3.36 3.33H29z" fill="#e6e9ee"/><path d="M22.81 17.21c.24.25.24.63 0 .87l-4.64 4.6c-.51.5-1.16.8-1.83.86-.88.09-1.78-.2-2.46-.86a3.012 3.012 0 0 1 0-4.25L16.34 16v1.74l-1.58 1.56c-.71.69-.71 1.82 0 2.51.42.42 1.02.59 1.57.49.35-.06.69-.22.96-.49l4.64-4.6c.24-.23.64-.23.88 0z" fill="#ff7058"/><path d="M22.99 14.07c-.08.11-.16.22-.27.32l-4.66 4.63c-.25.24-.64.24-.88 0a.616.616 0 0 1 0-.87l4.67-4.63c.3-.29.3-.77 0-1.07-.3-.3-.79-.3-1.09 0l-1.64 1.62h-1.75l2.51-2.49c.79-.77 2.05-.77 2.84 0 .68.67.78 1.72.27 2.49z" fill="#ff7058"/><path d="M19 27v-1h12v1zm0 2v-1h12v1zm0 2v-1h12v1zm0 2v-1h12v1z" fill="#e6e9ee"/></svg>